{"title":"Enemy.2013.720p.WEBRip.XviD.AC3-Insane098","uid":10017899,"size":2432103956,"categoryP":"video","categoryS":"movies","magnet":"?xt=urn:btih:f1963f39eadb9d1d8fcfdce019ccf2c99b011f8c&amp;dn=Enemy.2013.720p.WEBRip.XviD.AC3-Insane098&amp;tr=udp%3A%2F%2Ftracker.openbittorrent.com%3A80&amp;tr=udp%3A%2F%2Fopen.demonii.com%3A1337&amp;tr=udp%3A%2F%2Ftracker.coppersurfer.tk%3A6969&amp;tr=udp%3A%2F%2Fexodus.desync.com%3A6969","seeders":1,"leechers":0,"uploader":"098765432","files":-1,"time":1398175450,"description":"*******************************************************************************\n                   Enemy.2013.720p.WEBRip.XviD.AC3-Insane098\n*******************************************************************************\n\n-------------------------------------------------------------------------------\n                              General Information\n-------------------------------------------------------------------------------\nType.................: Movie\nMore Info............: http://www.imdb.com/title/tt2316411/\nSource...............: 1080p Web-DL\nGenre................: Thriller\nIMDb Rating..........: 7.3\nMovie Plot...........: A man seeks out his exact look-alike after spotting him in a movie.\n\n\nFormat                                   : AVI\nFormat/Info                              : Audio Video Interleave\nFormat profile                           : OpenDML\nFile size                                : 2.27 GiB\nDuration                                 : 1h 30mn\nOverall bit rate                         : 3 570 Kbps\nWriting application                      : Lavf55.33.100\n\nVideo\nID                                       : 0\nFormat                                   : MPEG-4 Visual\nFormat profile                           : Advanced Simple@L5\nFormat settings, BVOP                    : No\nFormat settings, QPel                    : No\nFormat settings, GMC                     : No warppoints\nFormat settings, Matrix                  : Default (H.263)\nCodec ID                                 : XVID\nCodec ID/Hint                            : XviD\nDuration                                 : 1h 30mn\nBit rate                                 : 3 176 Kbps\nWidth                                    : 1 280 pixels\nHeight                                   : 532 pixels\nDisplay aspect ratio                     : 2.40:1\nOriginal display aspect ratio            : 2.40:1\nFrame rate                               : 23.976 fps\nColor space                              : YUV\nChroma subsampling                       : 4:2:0\nBit depth                                : 8 bits\nScan type                                : Progressive\nCompression mode                         : Lossy\nBits/(Pixel*Frame)                       : 0.194\nStream size                              : 2.01 GiB (89%)\nWriting library                          : XviD 65\n\nAudio\nID                                       : 1\nFormat                                   : AC-3\nFormat/Info                              : Audio Coding 3\nCodec ID                                 : 00001000-0000-0020-8000-00AA00389B71\nDuration                                 : 1h 30mn\nBit rate                                 : 384 Kbps\nChannel count                            : 6 channels\nChannel positions                        : Front: L C R, Side: L R, LFE\nSampling rate                            : 48.0 KHz\nBit depth                                : 16 bits\nCompression mode                         : Lossy\nStream size                              : 250 MiB (11%)\nInterleave, duration                     : 32 ms (0.77 video frame)","torrent":{"xt":"urn:btih:f1963f39eadb9d1d8fcfdce019ccf2c99b011f8c","amp;dn":"Enemy.2013.720p.WEBRip.XviD.AC3-Insane098","amp;tr":["udp%3A%2F%2Ftracker.openbittorrent.com%3A80","udp%3A%2F%2Fopen.demonii.com%3A1337","udp%3A%2F%2Ftracker.coppersurfer.tk%3A6969","udp%3A%2F%2Fexodus.desync.com%3A6969"],"infoHash":"f1963f39eadb9d1d8fcfdce019ccf2c99b011f8c","infoHashBuffer":{"type":"Buffer","data":[241,150,63,57,234,219,157,29,143,207,220,224,25,204,242,201,155,1,31,140]},"announce":[],"urlList":[]}}